<svg xmlns="http://www.w3.org/2000/svg" width="178.567" height="169.827" viewBox="0 0 178.567 169.827"><defs><style>.a{fill:#f4a28c;}.b{fill:#ce8172;opacity:0.31;}.c{fill:#2b2a35;}.d,.f{fill:#334ac0;}.e{fill:#354493;}.f{opacity:0.08;}.g{fill:#91c5e4;}.h{fill:#24285b;}.i,.j,.k{fill:#fff;}.i{opacity:0.74;}.k{opacity:0.75;}.l{fill:none;stroke:#2b2a35;stroke-linecap:round;stroke-linejoin:round;stroke-width:2px;stroke-dasharray:2 10;}.m{fill:#c9c9c9;}</style></defs><g transform="translate(-775.717 -583.086)"><path class="a" d="M176.424,133.107a25.544,25.544,0,0,0,.6,6.78,2.049,2.049,0,0,0,2.567,1.366,4.541,4.541,0,0,0,3.414-3.558l1.086-3.626a3.68,3.68,0,0,0-1.769-3.865C179.954,128.669,176.424,130.6,176.424,133.107Z" transform="translate(672.273 528.729)"/><path class="a" d="M185.1,136.962l2.615,13.179-7.361.922L181.4,141.1Z" transform="translate(671.078 526.52)"/><path class="a" d="M175.94,138.313l-1.086,1.618a.683.683,0,0,0,.451,1.017l1.577.232Z" transform="translate(672.771 526.111)"/><path class="b" d="M181.277,145.347a4.827,4.827,0,0,0,2.342-1.523A7.625,7.625,0,0,1,181,148.816Z" transform="translate(670.883 524.443)"/><rect class="c" width="17.904" height="2.417" transform="translate(780.625 685.746) rotate(-13.27)"/><path class="a" d="M147.062,160.006s-15.787,5.872-17.931,16.388S115.01,203.577,98.1,171.041l-5.558,2.144s15.4,52.223,42.588,26.753S147.062,160.006,147.062,160.006Z" transform="translate(697.641 519.549)"/><path class="a" d="M97.257,172.373s-1.932-6.036-5.271-7.8a.608.608,0,0,0-.867.683l.58,2.943s-4.356,2.854,0,6.35Z" transform="translate(698.48 518.189)"/><path class="d" d="M163.772,158.293s-20.4,5.08-23.687,24.643L157.2,192.5Z" transform="translate(683.26 520.068)"/><path class="e" d="M163.772,158.293s-20.4,5.08-23.687,24.643L157.2,192.5Z" transform="translate(683.26 520.068)"/><path class="d" d="M193.872,155.9s-17.071-6.63-32.776,5.428,4.643,54.62,4.643,54.62l29.464.983S233.852,181.566,193.872,155.9Z" transform="translate(678.703 521.342)"/><path class="c" d="M174.631,126.22a2.556,2.556,0,0,0,.683,4.855,5.46,5.46,0,0,0,1.058,0c3.633-.3,2.445,2.356,4.848,4.158s2.731,3.366,2.731,3.366,2.267-1.557.86-6.036-.6-6.958-4.882-7.457a9.928,9.928,0,0,0-5.3,1.113Z" transform="translate(673.26 530.113)"/><path class="f" d="M189.959,160.006s-13.424,11.9-7.511,25.845c8.938,21.058,1,22.9-17.214,23.435L170.123,221l41.5-13.2-2.69-17.071Z" transform="translate(675.652 519.549)"/><path class="c" d="M164.937,237.155c11.308.382,14.223-.464,24.677-4.78,6.337-2.636,13.868-4.5,19.625-2.117,12.2,5.046,2.472,24.869-28.822,20.075l-28.9-1.3s-11.089,0-13.049-3.981c-2.39-4.855,2.615-9.894,25.709-7.887Z" transform="translate(683.91 498.633)"/><rect class="c" width="18.354" height="25.524" transform="translate(842.863 709.223) rotate(-19.56)"/><rect class="g" width="6.917" height="3.844" transform="translate(848.039 706.391) rotate(-19.56)"/><path class="d" d="M203.348,253.983s-10.761,1.454-8.194,3.947,8.959.628,8.959.628Z" transform="translate(666.723 491.125)"/><path class="d" d="M180.691,257.11l2.212-3.332s6.828,4.636,6.145,6.705C187.765,264.621,180.691,257.11,180.691,257.11Z" transform="translate(670.977 491.186)"/><path class="a" d="M197.538,165.121a7.825,7.825,0,0,1,10.454-7.3,31.856,31.856,0,0,1,16.934,13.465c8.563,14.339,23.626,52.578-30.12,41.728l.492-5.6s20.942,2.212,22.929-7.217C219.928,192.079,197.538,182.8,197.538,165.121Z" transform="translate(666.707 520.348)"/><path class="d" d="M272.754,243.575s-5.408-1.475-6.583-6.507c0,0,8.378-1.693,8.617,6.951Z" transform="translate(645.121 496.281)"/><path class="d" d="M275.768,240.7s-3.776-5.975-.451-11.56a9.618,9.618,0,0,1,3.537,11.574Z" transform="translate(642.77 498.639)"/><path class="d" d="M277.948,242.454s2-6.3,8.037-7.511c0,0,1.127,4.1-3.913,7.511Z" transform="translate(641.559 496.883)"/><path class="h" d="M272.329,245.5l1.1,7.5,6.9.027,1.017-7.491Z" transform="translate(643.258 493.691)"/><path class="d" d="M77.857,168.895l-2.274,1.946,2.827.4Z" transform="translate(702.77 516.861)"/><path class="d" d="M206.942,185.184s-16.511-22.4-4.677-28.358,24.759,11.608,26.76,18.013C229.025,174.839,222.258,184.385,206.942,185.184Z" transform="translate(665.742 520.879)"/><path class="e" d="M206.942,185.184s-16.511-22.4-4.677-28.358,24.759,11.608,26.76,18.013C229.025,174.839,222.258,184.385,206.942,185.184Z" transform="translate(665.742 520.879)"/><path class="a" d="M192.1,227.1s-2.656-5.258-6.111-4.589-1.734,8.945,5.62,10.188Z" transform="translate(669.893 500.66)"/><path class="a" d="M182.492,137.67s0-1.577,1.161-1.5,1.25,2.356-.355,2.629Z" transform="translate(670.432 526.762)"/><circle class="d" cx="21.734" cy="21.734" r="21.734" transform="translate(910.814 583.086)"/><circle class="i" cx="11.103" cy="11.103" r="11.103" transform="translate(926.342 590.48)"/><circle class="j" cx="6.07" cy="6.07" r="6.07" transform="translate(935.104 593.895)"/><rect class="c" width="25.34" height="19.775" transform="translate(919.875 622.369)"/><rect class="h" width="12.148" height="7.934" transform="translate(926.336 642.15)"/><rect class="k" width="12.148" height="7.934" transform="translate(926.336 642.15)"/><path class="l" d="M261.923,115.123s2.526,24.746-18.7,20.239-18.034-43.626-40.581-43.168-20.69,17.829-20.69,17.829" transform="translate(670.605 540.063)"/><path class="c" d="M112.617,94.532c5.278-3.715,8.631-9.218,8.631-15.37,0-11.185-11.069-20.26-24.725-20.26S71.8,67.977,71.8,79.162s11.069,20.26,24.718,20.26a29.034,29.034,0,0,0,11.806-2.451c2.171,4.1,6.528,8.4,15.207,8.1C123.536,105.068,115.062,102.487,112.617,94.532Z" transform="translate(703.912 550.131)"/><circle class="m" cx="2.847" cy="2.847" r="2.847" transform="translate(786.498 625.893)"/><circle class="m" cx="2.847" cy="2.847" r="2.847" transform="translate(797.629 625.893)"/><circle class="m" cx="2.847" cy="2.847" r="2.847" transform="translate(808.104 625.893)"/></g></svg>