<svg xmlns="http://www.w3.org/2000/svg" width="211.401" height="184.626" viewBox="0 0 211.401 184.626"><defs><style>.a{fill:#2b2a35;}.b,.c,.f{fill:#fff;}.c{opacity:0.21;}.d,.g,.h{fill:#334ac0;}.e{fill:#354493;}.f{opacity:0.15;}.g{opacity:0.58;}.h{opacity:0.73;}.i{fill:#24285b;}.j{fill:#f4a28c;}</style></defs><g transform="translate(-74.301 -573.244)"><g transform="translate(74.301 573.244)"><rect class="a" width="85.539" height="106.919" transform="translate(85.539 106.919) rotate(180)"/><path class="b" d="M282.047,104.619a19.06,19.06,0,1,1,19.059-19.06,19.06,19.06,0,0,1-19.059,19.06Zm0-32.989a13.929,13.929,0,1,0,13.918,13.929A13.929,13.929,0,0,0,282.047,71.63Z" transform="translate(-237.047 -43.17)"/><path class="b" d="M285.677,82.112c.346,0,.446.123.446.457v.725a3.346,3.346,0,0,1,2.688,2.041c.178.357.1.546-.3.725l-.714.323c-.346.156-.5.089-.691-.268A1.84,1.84,0,0,0,285.22,85c-1.249,0-1.829.368-1.829,1.216a1.115,1.115,0,0,0,1.015.981,8.92,8.92,0,0,0,1.115.167,6.525,6.525,0,0,1,1.963.379,2.766,2.766,0,0,1,.87.468,2.833,2.833,0,0,1,.781,2.063c0,1.606-1.115,2.688-2.978,2.967v.77c0,.335-.1.457-.446.457h-.8c-.335,0-.457-.123-.457-.457v-.747a3.346,3.346,0,0,1-2.944-2.23c-.123-.323,0-.535.335-.669l.725-.268c.368-.134.535,0,.691.323a1.918,1.918,0,0,0,1.985,1.238c1.361,0,2.03-.424,2.03-1.294a.9.9,0,0,0-.625-.915,4.852,4.852,0,0,0-1.461-.279,6.9,6.9,0,0,1-1.974-.424,2.42,2.42,0,0,1-1.651-2.487c0-1.595,1-2.654,2.888-2.9v-.725c0-.335.123-.457.457-.457Z" transform="translate(-240.265 -45.89)"/><rect class="b" width="33.747" height="5.409" transform="translate(27.536 72.556)"/><rect class="c" width="33.747" height="5.409" transform="translate(27.536 84.803)"/><circle class="b" cx="2.777" cy="2.777" r="2.777" transform="translate(7.729 7.237)"/><circle class="d" cx="2.777" cy="2.777" r="2.777" transform="translate(15.825 7.237)"/><circle class="e" cx="2.777" cy="2.777" r="2.777" transform="translate(24 7.237)"/></g><g transform="translate(232.914 639.396)"><rect class="d" width="10.694" height="7.315" transform="translate(4.577 23.285)"/><rect class="d" width="10.694" height="12.135" transform="translate(20.781 18.456)"/><rect class="d" width="10.694" height="20.369" transform="translate(36.726 10.222)"/><rect class="a" width="52.788" height="1.947" transform="translate(0 30.12)"/><path class="a" d="M371.254,125.554l-.725-.429,7.332-12.312,9.877,7.584,9.919-14.663,6.43,6.691-.607.581-5.706-5.933-9.843,14.537-9.834-7.551Z" transform="translate(-361.705 -105.732)"/></g><g transform="translate(224.021 600.328)"><rect class="a" width="57.948" height="26.376"/><path class="d" d="M352.918,266.151h11.621l-5.81-10.929Z" transform="translate(-312.1 -248.04)"/><rect class="b" width="22.896" height="3.468" rx="1.729" transform="translate(12.146 7.627)"/><rect class="f" width="22.896" height="3.468" rx="1.729" transform="translate(12.146 14.219)"/></g><g transform="translate(101.025 736.625)"><path class="g" d="M121.225,282s-6.073-1.633-7.417-7.276c0,0,9.394-1.942,9.7,7.741Z" transform="translate(-113.808 -268.42)"/><path class="h" d="M127.555,275.74s-4.264-6.685-.563-12.969a10.8,10.8,0,0,1,4.032,12.969Z" transform="translate(-119.399 -262.771)"/><path class="d" d="M131.568,279.9s2.21-7.086,8.972-8.444c0,0,1.288,4.588-4.349,8.444Z" transform="translate(-122.314 -266.93)"/><path class="i" d="M123.114,287.4l1.267,8.409h7.748l1.1-8.409Z" transform="translate(-118.265 -274.569)"/><path class="d" d="M121.225,282s-6.073-1.633-7.417-7.276c0,0,9.394-1.942,9.7,7.741Z" transform="translate(-113.808 -268.42)"/><path class="d" d="M127.555,275.74s-4.264-6.685-.563-12.969a10.8,10.8,0,0,1,4.032,12.969Z" transform="translate(-119.399 -262.771)"/><path class="d" d="M131.568,279.9s2.21-7.086,8.972-8.444c0,0,1.288,4.588-4.349,8.444Z" transform="translate(-122.314 -266.93)"/><path class="a" d="M123.114,287.4l1.267,8.409h7.748l1.1-8.409Z" transform="translate(-118.265 -274.569)"/></g><path class="d" d="M374.586,234.673s37.048-3.926,35.688,15.68S388.1,311.692,388.1,311.692H342.557s-34.573-52.974-17.732-70.015S345.456,239.257,374.586,234.673Z" transform="translate(-172.289 426.984)"/><path class="a" d="M390.653,333.511l-27.7,7.472L338.382,328.5l-3.736-6.647h64.182Z" transform="translate(-174.805 411.533)"/><path class="d" d="M402.684,256.809c-3.468-11.61,3.089-24.29,15.491-15,8.5,6.368,18.591,26.666,19.1,45.457,1.2,43.182-51.77-3.279-58.35-28.015l6.524-3.848s10.974,20.721,22.952,25.2C417.037,283.865,407.814,273.972,402.684,256.809Z" transform="translate(-182.52 426.037)"/><path class="e" d="M402.684,256.809c-3.468-11.61,3.089-24.29,15.491-15,8.5,6.368,18.591,26.666,19.1,45.457,1.2,43.182-51.77-3.279-58.35-28.015l6.524-3.848s10.974,20.721,22.952,25.2C417.037,283.865,407.814,273.972,402.684,256.809Z" transform="translate(-182.52 426.037)"/><path class="j" d="M381.729,233.922a44.115,44.115,0,0,0-.491,4.985c-.078,2.3-.814,5.7-4.461,6.368-5.576,1.037-7.071-7.807-7.071-7.807s-3.513-8.275,2.532-9.4C377.715,227.064,382.845,226.328,381.729,233.922Z" transform="translate(-180.738 427.98)"/><path class="j" d="M369.565,239.5s-.323-2.688-2.665-2.565S365.483,242.02,369.565,239.5Z" transform="translate(-180.205 426.328)"/><path class="j" d="M382.814,237.486s-.814-2.576,1.361-3.435S387.588,238.155,382.814,237.486Z" transform="translate(-183.172 426.85)"/><path class="a" d="M390.595,312.822l3.212-29.253H344.68l4.9,30.747-.7,3.948,42.245.335Z" transform="translate(-176.555 414.236)"/><path class="d" d="M374.9,335.969s-9.323,3.256-6.123,7.472,8.264-2.788,8.264-2.788Z" transform="translate(-180.635 409.074)"/><path class="a" d="M381.155,231.887a3.346,3.346,0,0,0,3.067-.279,2.521,2.521,0,0,0,.669-1.729c.312-3.089-.335-7.517-2.309-10.037s-6.4-2.32-9.212-1.9a11.665,11.665,0,0,0-4.149,1.271,9.012,9.012,0,0,0-3.346,3.915c-1.784,3.769-2.041,9.814,2.688,11.152,6.859,1.929,10.416-5.576,10.416-5.576a11.885,11.885,0,0,0,1.729,2.9A1.651,1.651,0,0,0,381.155,231.887Z" transform="translate(-180.039 429.68)"/><path class="a" d="M375.985,331.464s37.684-19.238,40.9-9.011-22.762,16.182-39.524,16.8Z" transform="translate(-182.008 411.951)"/><circle class="b" cx="4.204" cy="4.204" r="4.204" transform="translate(188 713.328)"/><path class="a" d="M357.041,331.049s-30.045-29.777-36.212-21,16.729,22.3,32.543,28Z" transform="translate(-172.219 413.873)"/><path class="d" d="M362.952,338.535s8.922,7.929,3.747,10.271-6.245-5.509-6.245-5.509Z" transform="translate(-179.301 408.627)"/><path class="d" d="M344.954,247.363a12.736,12.736,0,0,0-11.32-13.929c-6.792-.725-15.725-.279-23.665,4.7-15.4,9.658-32.442,17.364-28.238,34.863S316.5,297.839,316.5,297.839l4.071-6.692s-26.944-9.1-22.037-23.331C302.954,255.025,342.054,276.46,344.954,247.363Z" transform="translate(-165.475 426.984)"/><path class="e" d="M344.954,247.363a12.736,12.736,0,0,0-11.32-13.929c-6.792-.725-15.725-.279-23.665,4.7-15.4,9.658-32.442,17.364-28.238,34.863S316.5,297.839,316.5,297.839l4.071-6.692s-26.944-9.1-22.037-23.331C302.954,255.025,342.054,276.46,344.954,247.363Z" transform="translate(-165.475 426.984)"/><path class="j" d="M327.486,304.772s8.5,5.755,5.409,7.338-8.3-2.632-8.3-2.632Z" transform="translate(-173.055 414.51)"/><path class="a" d="M378.346,240.14a4.461,4.461,0,1,0-4.584,5.286l1.94,10.16,2.007-.379-1.941-10.16A4.461,4.461,0,0,0,378.346,240.14Zm-3.926,3.346c.279,1.317,1,.382,2.323.111s1.517-.993,1.253-2.313c-.081-.4.665.41.154-.169a1.7,1.7,0,0,0-1.8-.539,2.448,2.448,0,0,0-1.94,2.855Z" transform="translate(-180.949 428.391)"/><path class="j" d="M383.621,258.345s-3.045-7.472-7.216-6.859,2.309,9.792,2.309,9.792Z" transform="translate(-181.836 423.799)"/></g></svg>