<svg xmlns="http://www.w3.org/2000/svg" width="200.336" height="138.964" viewBox="0 0 200.336 138.964"><defs><style>.a{fill:#ffd200;}.b{fill:#fff;}.c{fill:#334ac0;}.d{fill:#354493;}.e{fill:#f4a28c;}.f{fill:#2b2a35;}.g{fill:#9c9c9c;}.h{fill:#f2f2f2;}.i{fill:#c9c9c9;}</style></defs><g transform="translate(-1433.832 -598.518)"><path class="a" d="M46.4,145.357s-15.791-41.225,3.147-55.386,43.081-9.932,41.785,15.54-2.008,40.318-2.008,40.318Z" transform="translate(1394.213 561.869)"/><path d="M46.4,145.357s-15.791-41.225,3.147-55.386,43.081-9.932,41.785,15.54-2.008,40.318-2.008,40.318Z" transform="translate(1394.213 561.869)"/><path class="b" d="M56.626,145.359s-15.8-41.225,3.147-55.386,43.088-9.907,41.829,15.565-2.014,40.318-2.014,40.318Z" transform="translate(1391.99 561.867)"/><path class="c" d="M129.261,102.833a71.246,71.246,0,0,1,19.933,25.8c7.194,16.295,9.12,23.816-9.969,21.242S116.988,126.208,129.261,102.833Z" transform="translate(1376.441 557.328)"/><path class="d" d="M129.261,102.833a71.246,71.246,0,0,1,19.933,25.8c7.194,16.295,9.12,23.816-9.969,21.242S116.988,126.208,129.261,102.833Z" transform="translate(1376.441 557.328)"/><path class="c" d="M71.888,148S53.34,93.138,94.325,94.095c52.17,1.259,22.375,54.958,22.375,54.958Z" transform="translate(1388.24 559.23)"/><path class="e" d="M111.526,71.292a27.368,27.368,0,0,1,1.416,7.181,2.209,2.209,0,0,1-2.241,2.2,4.835,4.835,0,0,1-4.595-2.65L103.9,74.6a3.959,3.959,0,0,1,.673-4.525C106.56,67.749,110.79,68.705,111.526,71.292Z" transform="translate(1380.461 564.738)"/><path class="e" d="M105.2,76.228l-3.474,14.01,7.861,1.366-.611-10.473Z" transform="translate(1380.842 563.113)"/><path class="f" d="M102.763,72l1.259,5.513a3,3,0,0,0,3.254-2.046,3.682,3.682,0,0,0-.969-3.915,48.515,48.515,0,0,0,6.6-1.089c.441-.132,1.466-.164,1.038-2.115,0,0-.057-3.311-2.417-3.506S101.385,67.6,102.763,72Z" transform="translate(1380.652 565.59)"/><path class="e" d="M114.7,75.255l1.775,1.756L115.2,77.7Z" transform="translate(1378.02 563.324)"/><ellipse class="f" cx="17.522" cy="14.583" rx="17.522" ry="14.583" transform="translate(1508.893 598.518)"/><path class="f" d="M140.412,51.207l-6.237,10.611L144.44,54.2Z" transform="translate(1373.785 568.553)"/><circle class="b" cx="2.165" cy="2.165" r="2.165" transform="translate(1517.352 610.936)"/><circle class="b" cx="2.165" cy="2.165" r="2.165" transform="translate(1524.293 610.936)"/><circle class="b" cx="2.165" cy="2.165" r="2.165" transform="translate(1531.154 610.936)"/><path class="c" d="M87.074,106.464s9.2-.9,8.434,11.228-4.179,19.593,5.092,16.15,10.177-16.15,10.177-16.15l16.641,7.068s-1.888,17.881-7.811,25.924H91.486l-13.022-12.3Z" transform="translate(1385.9 556.541)"/><path class="c" d="M68.985,107.905l-.3.629S54.547,144.6,73.088,153.221c19.335,8.944,35.3-32.206,35.3-32.206l-5.721-3.065L87.564,137.172a3.474,3.474,0,0,1-6.143-2.795c1.108-5.778,2.65-12.751,4.639-19.511C89.27,104.1,73.97,97.848,68.985,107.905Z" transform="translate(1389.146 557.328)"/><path class="d" d="M68.985,107.905l-.3.629S54.547,144.6,73.088,153.221c19.335,8.944,35.3-32.206,35.3-32.206l-5.721-3.065L87.564,137.172a3.474,3.474,0,0,1-6.143-2.795c1.108-5.778,2.65-12.751,4.639-19.511C89.27,104.1,73.97,97.848,68.985,107.905Z" transform="translate(1389.146 557.328)"/><rect class="g" width="168.958" height="6.621" transform="translate(1433.832 707.227)"/><rect class="f" width="168.958" height="23.633" transform="translate(1433.832 713.848)"/><path class="h" d="M118.1,160.025l4.934-10.618h30.324l4.1,10.618Z" transform="translate(1377.281 547.201)"/><path class="i" d="M162.124,149.407l-3.7,10.618h7.8Z" transform="translate(1368.514 547.201)"/><path class="e" d="M211.657,75.839l1.466,8.478,7.634.56-4.645-13.563Z" transform="translate(1356.939 564.182)"/><path class="e" d="M212.617,60.821a5.085,5.085,0,0,0-8.075,2.738c-1.032,3.883-1.743,9.567,2.763,10.026C214.2,74.3,215.4,65.4,215.4,65.4a9.315,9.315,0,0,0-2.782-4.582Z" transform="translate(1358.654 566.699)"/><path class="e" d="M213.339,68.989s.711-1.781,2.127-.554-.478,3.2-1.58,2.788S213.339,68.989,213.339,68.989Z" transform="translate(1356.604 564.9)"/><path class="f" d="M208.554,64.032s1.441,9.139,5.872,6.137.082-4.922.566-9.6-1.976-6.294-7.137-7.427c-2.373-.5-3.808-.554-4.853-.938a2.864,2.864,0,0,0-3.9,2.87C199.478,58.676,201.593,62.635,208.554,64.032Z" transform="translate(1359.67 568.379)"/><path class="c" d="M233.278,92.208S214.894,82,198.536,88.1c-29.776,11.1-28.127,31.066-7.232,88.271l27.422.151Z" transform="translate(1364.723 560.953)"/><path class="c" d="M207.719,86.445s1.762,4.355-1.259,16.993-18.819,55.115-18.819,55.115l6.25,17.768h9.976l30.67-84.847S220.64,84.317,207.719,86.445Z" transform="translate(1362.16 560.977)"/><path class="b" d="M205.2,177.982s-5.633-78.277,27.775-84.338,44.516,22.658,24.987,84.338Z" transform="translate(1358.422 559.498)"/><path class="a" d="M215.618,177.982s-5.664-78.277,27.775-84.338,44.516,22.658,24.987,84.338Z" transform="translate(1356.156 559.498)"/><path class="f" d="M123.914,95.876l-4.16,27.284,20.531-.862,3.3-26.422Z" transform="translate(1376.922 558.84)"/><path d="M215.618,177.982s-5.664-78.277,27.775-84.338,44.516,22.658,24.987,84.338Z" transform="translate(1356.156 559.498)"/><path class="e" d="M115.572,121.539s2.839-6.583,6.671-5.916,6.294,5.86-2.518,8.151Z" transform="translate(1377.83 554.557)"/><path class="c" d="M96.857,94.216l4.878-4.381,4.041,4.286L103.768,97.9Z" transform="translate(1381.9 560.154)"/><path class="c" d="M108.253,94.643l2.53-2.411,1.492,3.3-2.008,2.889Z" transform="translate(1379.422 559.633)"/><path class="d" d="M96.857,94.216l4.878-4.381,4.041,4.286L103.768,97.9Z" transform="translate(1381.9 560.154)"/><path class="d" d="M108.253,94.643l2.53-2.411,1.492,3.3-2.008,2.889Z" transform="translate(1379.422 559.633)"/><path class="c" d="M195.041,110.947c-.566-10.75-14.212-15.105-20.959-6.709-5.218,6.476-8.811,16.012-8.4,30.078.85,28.908-18.372,45.184-18.372,45.184h19.467s16.572-19.014,25.566-49.9C194.594,121.811,195.274,115.712,195.041,110.947Z" transform="translate(1370.93 557.98)"/><path class="d" d="M195.041,110.947c-.566-10.75-14.212-15.105-20.959-6.709-5.218,6.476-8.811,16.012-8.4,30.078.85,28.908-18.372,45.184-18.372,45.184h19.467s16.572-19.014,25.566-49.9C194.594,121.811,195.274,115.712,195.041,110.947Z" transform="translate(1370.93 557.98)"/></g></svg>