<svg xmlns="http://www.w3.org/2000/svg" width="220.926" height="125.742" viewBox="0 0 220.926 125.742"><defs><style>.a,.h,.i{fill:#334ac0;}.b{fill:#2b2a35;}.c{fill:#f4a28c;}.d{fill:#354493;}.e{fill:#ffd200;}.f,.g{fill:#fff;}.g{opacity:0.72;}.h{opacity:0.52;}.i{opacity:0.7;}</style></defs><g transform="translate(-419.822 -619.18)"><path class="a" d="M218.639,203.346s-6.762-1.846-8.22-8.137c0,0,10.461-2.115,10.775,8.7Z" transform="translate(242.037 526.801)"/><path class="a" d="M220.065,202.065s-4.722-7.472-.568-14.451c0,0,7.958,5.059,4.424,14.466Z" transform="translate(241.439 527.402)"/><path class="a" d="M221.583,202.512s2.5-7.883,10.043-9.378c0,0,1.412,5.119-4.887,9.4Z" transform="translate(241.133 526.955)"/><path class="b" d="M216.249,203.151l1.375,9.37,8.63.037,1.27-9.363Z" transform="translate(241.564 526.145)"/><path class="c" d="M244.446,71.43s4.715-5.231,8.107-4.939,5.231,6.725-5.343,10.558Z" transform="translate(358.73 593.637)"/><rect class="a" width="32.191" height="27.607" transform="translate(608.557 620.125)"/><path class="a" d="M187.125,70.37l16.028,26.818,34.709-25.107,6.232,4.7-34.522,36.98a12.606,12.606,0,0,1-18.74-.359L173.645,93.482Z" transform="translate(364.463 593.32)"/><path class="d" d="M187.125,70.37l16.028,26.818,34.709-25.107,6.232,4.7-34.522,36.98a12.606,12.606,0,0,1-18.74-.359L173.645,93.482Z" transform="translate(364.463 593.32)"/><path class="c" d="M158.85,38.792a32.423,32.423,0,0,1-.2,8.7,2.638,2.638,0,0,1-3.161,1.98,5.806,5.806,0,0,1-4.655-4.252l-1.681-4.536a4.693,4.693,0,0,1,1.943-5.074C153.993,33.449,158.648,35.608,158.85,38.792Z" transform="translate(366.459 596.207)"/><path class="c" d="M149.84,42.6,145.611,59.23l9.325,1.681-.665-12.77Z" transform="translate(366.732 595.57)"/><path class="b" d="M148.183,44.156h0a.493.493,0,0,0,.389.471,3.467,3.467,0,0,0,3.871-1.636,4.356,4.356,0,0,0-.12-4.79,20.534,20.534,0,0,0,4.835.247,4.984,4.984,0,0,0,1.584-.359l1.248-3.968s2.055-3.975-.276-4.775-3.37,1.868-5.283,0-2.354-2.563-4.282-1.494.314,2.57-2.862,2.615-3.221,1.36-3.221,2.8a2.526,2.526,0,0,0,.628,1.323A16.073,16.073,0,0,1,148.183,44.156Z" transform="translate(366.857 596.805)"/><path class="c" d="M153.559,44.021s-.112-2.01-1.607-1.816-1.4,3.1.665,3.325Z" transform="translate(366.301 595.604)"/><path class="c" d="M159.85,42.743l1.494,1.973a.837.837,0,0,1-.493,1.33l-1.988.433Z" transform="translate(365.66 595.559)"/><path class="a" d="M119.536,75.689a15.826,15.826,0,0,1,13.248-13.622c10.386-1.644,26.9-2.8,42.592,2.242,25.593,8.22-4.857,62.58-4.857,62.58H133.008S116.076,103.157,119.536,75.689Z" transform="translate(368.883 594.107)"/><path class="e" d="M169.482,70.863l4.82,12.329,4.028-2.115L174.3,70.37Z" transform="translate(364.801 593.32)"/><path class="b" d="M169.482,70.863l4.82,12.329,4.028-2.115L174.3,70.37Z" transform="translate(364.801 593.32)"/><path class="c" d="M167.767,75.926s4.708-5.231,8.1-4.939,5.231,6.725-5.335,10.558Z" transform="translate(364.939 593.271)"/><path class="b" d="M172.287,57.34l33.431-19.988L213.19,67.7H174.529Z" transform="translate(364.572 595.996)"/><path class="b" d="M171.541,59.1l-8.474,2.914,2.615,9.154,8.1-1.711Z" transform="translate(365.32 594.234)"/><rect class="b" width="49.691" height="32.422" transform="translate(590.57 712.5)"/><rect class="b" width="42.853" height="40.567" transform="translate(419.822 619.18)"/><path class="f" d="M249.357,131.634v17.433l18.143-9.826Z" transform="translate(358.332 588.363)"/><path class="f" d="M71.187,33.718A5.029,5.029,0,0,0,68,34.816a7.061,7.061,0,0,0-1.853,2.242A7.166,7.166,0,0,0,64.3,34.816a5.044,5.044,0,0,0-3.168-1.1c-3.243,0-5.686,2.653-5.686,6.172,0,3.8,3.049,6.4,7.667,10.334.747.673,1.674,1.427,2.6,2.242a.635.635,0,0,0,.441.164.65.65,0,0,0,.441-.164c.919-.807,1.808-1.562,2.6-2.242,4.618-3.938,7.667-6.538,7.667-10.334C76.873,36.355,74.43,33.718,71.187,33.718Z" transform="translate(374.033 596.289)"/><path class="g" d="M243.9,42.579l10.067-15.773,6.024,14.378,6.6-11.768,9.5,14.181v4.535H243.9Z" transform="translate(364.66 599.6)"/><circle class="f" cx="2.773" cy="2.773" r="2.773" transform="translate(622.754 622.465)"/><path class="d" d="M135.937,71.933a8.967,8.967,0,0,0-14.945-5.163,18.681,18.681,0,0,0-5.978,14.242c.187,15.55-.374,40.582,12.142,45.252S166.23,81.012,166.23,81.012l-2.765-5.619L131.775,101.8S137.835,84.965,135.937,71.933Z" transform="translate(369.211 593.807)"/><ellipse class="d" cx="6.187" cy="15.684" rx="6.187" ry="15.684" transform="matrix(0.972, -0.235, 0.235, 0.972, 564.945, 634.563)"/><ellipse class="b" cx="6.187" cy="15.684" rx="6.187" ry="15.684" transform="matrix(0.972, -0.235, 0.235, 0.972, 564.945, 634.563)"/><path class="h" d="M206.238,48.071a2.518,2.518,0,0,0-.486.187,37.563,37.563,0,0,0,3.609,14.362,2.145,2.145,0,0,0,.374-.052c2.13-.516,3.071-4.177,2.107-8.22S208.368,47.555,206.238,48.071Z" transform="translate(361.602 594.348)"/><rect class="i" width="22.55" height="15.131" transform="translate(424.566 689.285)"/><path class="a" d="M35.734,88.583,47.009,99.307,58.284,88.583Z" transform="translate(388.828 600.701)"/><g transform="translate(485.303 711.082)"><path class="b" d="M138.539,197.085l21.512,5.8,19.084-9.682,2.9-5.167H132.2Z" transform="translate(-123.55 -179.421)"/><path class="a" d="M160.124,199.1s7.241,2.536,4.759,5.806-6.418-2.162-6.418-2.162Z" transform="translate(-128.341 -181.438)"/><path class="b" d="M153.594,195.468s-29.235-14.958-31.757-6.99,17.677,12.571,30.69,13.047Z" transform="translate(-121.621 -179.075)"/><path class="b" d="M169.416,195.068s23.34-23.116,28.127-16.317-13.01,17.347-25.271,21.756Z" transform="translate(-130.339 -177.499)"/><path class="a" d="M169.612,201.117s-6.915,6.16-2.91,7.975,4.847-4.276,4.847-4.276Z" transform="translate(-129.617 -181.808)"/></g></g></svg>