<svg xmlns="http://www.w3.org/2000/svg" width="146.494" height="24.504" viewBox="0 0 146.494 24.504"><defs><style>.a,.c{fill:#2b2a35;}.b{fill:#334ac0;}.c{mix-blend-mode:multiply;isolation:isolate;}</style></defs><g transform="translate(-292.599 -470.479)"><g transform="translate(292.599 471.45)"><path class="a" d="M305.935,487.738l-.252.441-7.117,12.335H292.6l7.377-12.776Z" transform="translate(-292.599 -477.287)"/><path class="a" d="M324.5,495.173h-5.966l-7.361-12.823-2.979-5.194,2.971-5.21,2.979,5.194Z" transform="translate(-297.875 -471.946)"/><path class="b" d="M314.955,487.744l-2.987,5.19-4.363,7.58H301.64l7.1-12.334.251-.441h5.959Z" transform="translate(-295.657 -477.287)"/><path class="a" d="M321.761,487.738l0,.006,0-.006Z" transform="translate(-302.461 -477.287)"/><path class="c" d="M320.236,487.756l-2.987,5.187,0-.006,2.987-5.19Z" transform="translate(-300.935 -477.29)"/></g><g transform="translate(321.897 471.163)"><path class="a" d="M357.412,471.512v13.321c0,6.455-3.885,10.465-10.14,10.465-6.321,0-10.4-4.1-10.4-10.465V471.512h4.865v13.321c0,3.787,2.028,5.959,5.567,5.959,3.333,0,5.245-2.172,5.245-5.959V471.512Z" transform="translate(-336.871 -471.512)"/></g><g transform="translate(377.313 471.129)"><path class="a" d="M437.646,482.934a4.927,4.927,0,0,0,2.574-4.436c0-4.473-3.024-7.037-8.3-7.037H420.609v23.82h11.314c5.882,0,8.992-2.466,8.992-7.135A6.1,6.1,0,0,0,437.646,482.934Zm-5.723,7.656h-6.391v-5.355h6.391c1.648,0,4.038,1.026,4.038,2.877C435.961,490.471,432.6,490.59,431.923,490.59Zm-6.391-14.537h6.391c2.641,0,3.339,1.664,3.339,2.543,0,1.8-1.817,2.181-3.339,2.181h-6.391Z" transform="translate(-420.609 -471.461)"/></g><g transform="translate(420.319 471.129)"><path class="a" d="M504.369,475.886v.958l-12.05,13.7,12.05.006v4.764H485.595v-4.772h0l13.047-14.351H485.9v-4.73h18.474v4.426Z" transform="translate(-485.595 -471.46)"/></g><path class="a" d="M394.838,488.05l3.082,3.159-.217.211c-.267.263-.543.512-.827.748-.007.009-.015.012-.022.018a12.246,12.246,0,0,1-7.209,2.785l-.294.009c-.1,0-.2,0-.3,0-.119,0-.239,0-.358,0s-.236-.007-.353-.013a11.684,11.684,0,0,1-8.529-3.842,13,13,0,0,1,0-16.789A10.992,10.992,0,0,1,385,471.043a13.674,13.674,0,0,1,3.336-.548c.116-.007.236-.009.353-.013s.239,0,.358,0c.1,0,.2,0,.3,0l.294.009a12.262,12.262,0,0,1,8.058,3.55l.126.123.091.089-3.088,3.165-.218-.211a8.445,8.445,0,0,0-5.567-2.188,8.013,8.013,0,0,0-2.114.276,6.652,6.652,0,0,0-3.324,1.694,7.371,7.371,0,0,0-2.077,5.383c0,.12,0,.239.006.359s-.006.239-.006.358c0,3.034,1.461,6.244,5.4,7.078a8.009,8.009,0,0,0,2.114.275c.141,0,.282,0,.426-.012a8.468,8.468,0,0,0,5.141-2.175l.218-.212Z" transform="translate(-28.457)"/><path class="a" d="M407.168,497.47l-3.082-3.159v-3.535h-.009v-1.783l4.388,1.7v5.42" transform="translate(-37.704 -6.262)"/><path class="b" d="M406.141,494.54l-8.936-4.722v-5.461l8.494,4.491.441.231Z" transform="translate(-35.38 -4.694)"/><path class="b" d="M504.528,471.46l-18.465,4.655V481.5l17.552-4.427.912-.228Z" transform="translate(-65.434 -0.332)"/><path class="a" d="M463.249,495.3V471.508h4.942V495.3Z" transform="translate(-57.718 -0.348)"/></g></svg>